<svg id="vector" xmlns="http://www.w3.org/2000/svg" width="512" height="512" viewBox="0 0 512 512"><path fill="#000000" d="M253,135c-145.2,67.5 -250.2,116.9 -251.2,118.1 -1,1.2 -1.8,3.1 -1.8,4.4 0,1.3 0.8,3.2 1.8,4.4 2.2,2.6 143.5,72.1 146.7,72.1 2.1,-0 42.5,-29.6 119.6,-87.6 9.8,-7.4 18.1,-13.4 18.4,-13.4 0.4,-0 -23.2,24.5 -52.4,54.4 -29.1,29.9 -53.3,55.4 -53.6,56.7 -0.3,1.3 1.9,34.3 4.9,73.4l5.5,71 2.6,2.2c1.4,1.3 3.4,2.3 4.4,2.3 1,-0 3.2,-1 4.9,-2.3 1.7,-1.2 18.9,-20.6 38.3,-43.2 19.3,-22.6 35.7,-41.6 36.4,-42.3 1,-1.1 9.5,2.6 47.6,20.8 25.5,12.2 47.7,22.2 49.2,22.2 1.6,0.1 3.7,-0.8 4.9,-2 1.5,-1.4 21.1,-62.7 66.9,-208.4 35.7,-113.4 65.2,-208 65.5,-210 0.5,-3.1 0.2,-4.1 -1.9,-6.2 -1.5,-1.4 -3.6,-2.6 -4.9,-2.6 -1.3,-0 -114.6,52.2 -251.8,116z" stroke="#00000000" id="path_0"/></svg>